#N canvas 652 22 596 445 10;
#X declare -path ../externals;
#X declare -lib mrpeach;
#X obj 23 192 gemwin;
#X msg 42 147 destroy;
#X obj 467 405 s /freenect;
#X floatatom 467 359 5 0 0 0 - - -;
#X msg 467 381 angle \$1;
#X text 50 98 create gemwindow;
#X obj 365 114 bng 15 250 50 0 empty empty parameters_to_start 17 7
0 10 -262144 -1 -1;
#X text 16 404 (C)2012 Matthias Kronlachner;
#X obj 407 4 declare -path ../externals;
#N canvas 476 447 476 230 DRAW-SMALL-VIDEOS 0;
#X obj 33 89 pix_texture;
#X obj 33 156 rectangle 1 0.75;
#X obj 253 89 pix_texture;
#X obj 253 156 rectangle 1 0.75;
#X text 149 10 draw kinect pictures on bottom left;
#X obj 33 52 gemhead 5;
#X obj 253 52 gemhead 5;
#X obj 33 114 translateXYZ -4 -3 0.1;
#X obj 253 113 translateXYZ -2 -3 0.1;
#X obj 96 65 r /kinect/tex-id/rgb;
#X obj 316 58 r /kinect/tex-id/depth;
#X connect 0 0 7 0;
#X connect 2 0 8 0;
#X connect 5 0 0 0;
#X connect 6 0 2 0;
#X connect 7 0 1 0;
#X connect 8 0 3 0;
#X connect 9 0 0 1;
#X connect 10 0 2 1;
#X restore 26 305 pd DRAW-SMALL-VIDEOS;
#X text 326 378 change angle of kinect;
#X obj 24 271 openni-interface;
#X obj 365 60 r init;
#X obj 109 161 tgl 15 0 empty empty empty 17 7 0 10 -262144 -1 -1 0
1;
#X obj 365 85 delay 2000;
#X text 6 12 skeleton tracking with OpenNI/NITE;
#X obj 24 338 skeleton_visualisation;
#X obj 243 15 import mrpeach;
#X msg 365 136 \; /openni skeleton 1 \; /openni depth_output 0 \; /openni
real_world_coords 1 \; /openni osc_style_output 1 \;;
#X msg 23 119 lighting 1 \, dimen 640 480 \, color 0 0 0 \, create
\, 1;
#X obj 150 148 gemhead;
#X obj 150 185 world_light;
#X text 169 335 <- look inside here;
#X text 17 34 display joints in gem;
#X text 322 228 * work with real world coordinates;
#X text 319 244 * output osc style -> needs routeOSCC;
#X text 324 214 * depth_output does not matter;
#X text 239 31 (for routeOSC if pd-extended is used);
#X connect 1 0 0 0;
#X connect 3 0 4 0;
#X connect 4 0 2 0;
#X connect 6 0 18 0;
#X connect 12 0 14 0;
#X connect 13 0 0 0;
#X connect 14 0 6 0;
#X connect 19 0 0 0;
#X connect 20 0 21 0;
