#N canvas 227 614 450 300 10;
#X obj 126 6 inlet;
#X obj 127 266 outlet;
#X obj 122 128 float;
#X obj 98 93 trigger bang symbol;
#X obj 126 63 unpack symbol float float float float float;
#X obj 124 170 pack float symbol float float float float;
#X connect 0 0 4 0;
#X connect 2 0 5 0;
#X connect 3 0 2 0;
#X connect 3 1 5 1;
#X connect 4 0 3 0;
#X connect 4 1 2 1;
#X connect 4 2 5 2;
#X connect 4 3 5 3;
#X connect 4 4 5 4;
#X connect 4 5 5 5;
#X connect 5 0 1 0;
