#N canvas 381 344 695 381 10;
#X obj 368 17 gemhead;
#N canvas 294 162 658 378 elements 1;
#N canvas 627 107 567 462 text 1;
#X obj 99 188 translateXYZ;
#X obj 122 120 * 1;
#X obj 154 119 * 1;
#X obj 186 119 * 1;
#X obj -67 86 separator;
#X obj 122 85 unpack f f f;
#X obj 249 360 text3d;
#X obj 249 308 list trim;
#X obj 344 309 loadbang;
#X obj 249 157 loadbang;
#X obj 249 179 f \$1;
#X obj 249 277 list prepend text;
#X msg 326 215 1;
#X obj 262 35 r /kinect/skeleton/\$1/scale_x;
#X obj 272 56 r /kinect/skeleton/\$1/scale_y;
#X obj 277 76 r /kinect/skeleton/\$1/scale_z;
#X obj -67 65 r /kinect/skeleton/\$1/gemhead;
#X msg 344 333 justify center base;
#X obj 249 244 list prepend #;
#X obj 329 190 r /kinect/skeleton/\$1/id;
#X obj 99 216 translateXYZ 0 0.2 0.1;
#X obj 122 -68 r /kinect/skeleton/\$1;
#X obj 274 -57 r /kinect/skeleton/\$1/id;
#X msg 282 330 6;
#X obj 99 243 color 1 0.3 0.2 1;
#X obj 122 -26 route /head;
#X connect 0 0 20 0;
#X connect 1 0 0 1;
#X connect 2 0 0 2;
#X connect 3 0 0 3;
#X connect 4 0 0 0;
#X connect 5 0 1 0;
#X connect 5 1 2 0;
#X connect 5 2 3 0;
#X connect 7 0 6 0;
#X connect 8 0 23 0;
#X connect 8 0 17 0;
#X connect 9 0 10 0;
#X connect 10 0 18 0;
#X connect 11 0 7 0;
#X connect 12 0 18 0;
#X connect 13 0 1 1;
#X connect 14 0 2 1;
#X connect 15 0 3 1;
#X connect 16 0 4 0;
#X connect 17 0 6 0;
#X connect 18 0 11 0;
#X connect 19 0 18 0;
#X connect 20 0 24 0;
#X connect 21 0 25 0;
#X connect 23 0 6 1;
#X connect 24 0 6 0;
#X connect 25 0 5 0;
#X restore 77 31 pd text;
#X obj 71 136 joint l_elbow \$1;
#X obj 269 19 joint head \$1;
#X obj 144 106 joint l_shoulder \$1;
#X obj -26 151 joint l_hand \$1;
#X obj 270 50 joint neck \$1;
#X obj 268 97 joint torso \$1;
#X obj 356 106 joint r_shoulder \$1;
#X obj 450 130 joint r_elbow \$1;
#X obj 525 155 joint r_hand \$1;
#X obj 324 205 joint r_hip \$1;
#X obj 215 205 joint l_hip \$1;
#X obj 210 267 joint l_knee \$1;
#X obj 371 270 joint r_knee \$1;
#X obj 163 343 joint l_foot \$1;
#X obj 412 346 joint r_foot \$1;
#X restore 44 13 pd elements;
#X obj 368 168 rotateXYZ 0 0 0;
#X obj 91 230 loadbang;
#X obj 368 80 translateXYZ;
#X msg 229 277 0;
#X msg 25 278 0.002;
#X obj 25 307 s /kinect/skeleton/\$1/scale_x;
#X obj 35 327 s /kinect/skeleton/\$1/scale_y;
#X obj 441 330 s /kinect/skeleton/\$1/sphere_segments;
#X obj 456 302 s /kinect/skeleton/\$1/sphere_size;
#X obj 368 233 s /kinect/skeleton/\$1/gemhead;
#X obj 107 137 tgl 15 0 /kinect/skeleton/\$1/norm_to_torso /kinect/skeleton/\$1/norm_to_torso
norm_to_torso 17 7 0 10 -262144 -1 -1 1 1;
#X obj 107 120 tgl 15 0 /kinect/skeleton/\$1/debug /kinect/skeleton/\$1/debug
show 17 7 0 10 -257985 -1 -1 1 1;
#X obj 107 173 nbx 5 14 -1e+37 1e+37 0 0 /kinect/skeleton/\$1/scale_x
/kinect/skeleton/\$1/scale_x scale_x 58 8 0 10 -262144 -1 -1 0.001
256;
#X obj 229 298 s /kinect/skeleton/\$1/scale_z;
#X obj 107 190 nbx 5 14 -1e+37 1e+37 0 0 /kinect/skeleton/\$1/scale_y
/kinect/skeleton/\$1/scale_y scale_y 58 8 0 10 -262144 -1 -1 0.0015
256;
#X obj 107 208 nbx 5 14 -1e+37 1e+37 0 0 /kinect/skeleton/\$1/scale_z
/kinect/skeleton/\$1/scale_z scale_z 58 8 0 10 -262144 -1 -1 0 256
;
#X obj 499 23 r /kinect/skeleton/\$1/x;
#X obj 509 43 r /kinect/skeleton/\$1/y;
#X obj 519 63 r /kinect/skeleton/\$1/z;
#X obj 215 108 cnv 15 80 65 empty empty translate 10 5 0 8 -233017
-66577 0;
#X obj 226 122 nbx 4 14 -1e+37 1e+37 0 0 /kinect/skeleton/\$1/x /kinect/skeleton/\$1/x
x 48 8 0 10 -262144 -1 -1 -2 256;
#X obj 226 139 nbx 4 14 -1e+37 1e+37 0 0 /kinect/skeleton/\$1/y /kinect/skeleton/\$1/y
y 48 8 0 10 -262144 -1 -1 0 256;
#X obj 226 156 nbx 4 14 -1e+37 1e+37 0 0 /kinect/skeleton/\$1/z /kinect/skeleton/\$1/z
z 48 8 0 10 -262144 -1 -1 0 256;
#X obj 225 176 nbx 3 14 -1e+37 1e+37 0 0 /kinect/skeleton/\$1/rot_x
/kinect/skeleton/\$1/rot_x rot_x 38 8 0 10 -262144 -1 -1 0 256;
#X obj 225 193 nbx 3 14 -1e+37 1e+37 0 0 /kinect/skeleton/\$1/rot_y
/kinect/skeleton/\$1/rot_y rot_y 38 8 0 10 -262144 -1 -1 0 256;
#X obj 225 210 nbx 3 14 -1e+37 1e+37 0 0 /kinect/skeleton/\$1/rot_z
/kinect/skeleton/\$1/rot_z rot_z 38 8 0 10 -262144 -1 -1 0 256;
#X obj 499 93 r /kinect/skeleton/\$1/rot_x;
#X obj 509 113 r /kinect/skeleton/\$1/rot_y;
#X obj 519 133 r /kinect/skeleton/\$1/rot_z;
#N canvas 460 289 671 383 norm_to_torso 0;
#X obj 35 126 inlet;
#X obj 98 288 outlet;
#X obj 98 202 translateXYZ;
#X obj 125 94 * 1;
#X obj 157 93 * 1;
#X obj 189 93 * 1;
#X obj 189 159 * -1;
#X obj 125 159 * -1;
#X obj 157 159 * -1;
#X obj 94 62 unpack f f f;
#X obj 251 -40 r /kinect/skeleton/\$1/scale_x;
#X obj 261 -20 r /kinect/skeleton/\$1/scale_y;
#X obj 245 104 sel 0 1;
#X msg 244 125 0;
#X msg 269 125 -1;
#X obj 210 126 t f;
#X obj 258 8 r /kinect/skeleton/\$1/scale_z;
#X obj 245 82 r /kinect/skeleton/\$1/norm_to_torso;
#X obj 94 -64 r /kinect/skeleton/\$1;
#X obj 94 -22 route /torso;
#X connect 0 0 2 0;
#X connect 2 0 1 0;
#X connect 3 0 7 0;
#X connect 4 0 8 0;
#X connect 5 0 6 0;
#X connect 6 0 2 3;
#X connect 7 0 2 1;
#X connect 8 0 2 2;
#X connect 9 0 3 0;
#X connect 9 1 4 0;
#X connect 9 2 5 0;
#X connect 10 0 3 1;
#X connect 11 0 4 1;
#X connect 12 0 13 0;
#X connect 12 1 14 0;
#X connect 13 0 15 0;
#X connect 14 0 15 0;
#X connect 15 0 7 1;
#X connect 15 0 8 1;
#X connect 15 0 6 1;
#X connect 16 0 5 1;
#X connect 17 0 12 0;
#X connect 18 0 19 0;
#X connect 19 0 9 0;
#X restore 368 38 pd norm_to_torso;
#X obj 107 155 nbx 1 14 -1e+37 1e+37 0 0 /kinect/skeleton/\$1/id /kinect/skeleton/\$1/id
skel_id 23 8 0 10 -262144 -1 -1 0 256;
#X obj 368 -4 r /kinect/skeleton/\$1/debug;
#X connect 0 0 31 0;
#X connect 2 0 11 0;
#X connect 3 0 6 0;
#X connect 3 0 5 0;
#X connect 4 0 2 0;
#X connect 5 0 15 0;
#X connect 6 0 7 0;
#X connect 6 0 8 0;
#X connect 18 0 4 1;
#X connect 19 0 4 2;
#X connect 20 0 4 3;
#X connect 28 0 2 1;
#X connect 29 0 2 2;
#X connect 30 0 2 3;
#X connect 31 0 4 0;
#X connect 33 0 0 0;
#X coords 0 -1 1 1 200 130 1 100 100;
