#N canvas 115 178 1033 279 10;
#X obj 159 168 translateXYZ;
#X text -21 -17 arg1: joint name;
#X obj 182 140 * 1;
#X obj 214 139 * 1;
#X obj 246 139 * 1;
#X obj -70 91 separator;
#X obj 159 224 sphere 0.07;
#X obj 159 193 color 1 1 1;
#N canvas 625 118 450 300 colors 0;
#X obj 20 20 loadbang;
#X obj 20 41 symbol \$1;
#X msg 20 128 1 1 0;
#X obj 28 193 outlet;
#X obj 20 80 sel head l_hand r_hand l_shoulder r_shoulder l_hip r_hip
l_foot r_foot;
#X msg 74 127 0.5 0.5 1;
#X msg 174 128 0.5 0.5 1;
#X msg 266 131 1 0.5 0.5;
#X msg 370 133 1 0.5 0.5;
#X connect 0 0 1 0;
#X connect 1 0 4 0;
#X connect 2 0 3 0;
#X connect 4 0 2 0;
#X connect 4 1 5 0;
#X connect 4 2 5 0;
#X connect 4 3 6 0;
#X connect 4 4 6 0;
#X connect 4 5 7 0;
#X connect 4 6 7 0;
#X connect 4 7 8 0;
#X connect 4 8 8 0;
#X connect 5 0 3 0;
#X connect 6 0 3 0;
#X connect 7 0 3 0;
#X connect 8 0 3 0;
#X restore -6 167 pd colors;
#X text -22 6 arg2: skeleton id;
#X obj 182 105 unpack f f f;
#X obj 322 25 r /kinect/skeleton/\$2/scale_x;
#X obj 332 46 r /kinect/skeleton/\$2/scale_y;
#X obj 268 185 r /kinect/skeleton/\$2/sphere_size;
#X obj 253 213 r /kinect/skeleton/\$2/sphere_segments;
#X obj -70 70 r /kinect/skeleton/\$2/gemhead;
#X obj 337 66 r /kinect/skeleton/\$2/scale_z;
#X obj 182 -18 r /kinect/skeleton/\$2;
#X obj 182 14 route /\$1;
#X connect 0 0 7 0;
#X connect 2 0 0 1;
#X connect 3 0 0 2;
#X connect 4 0 0 3;
#X connect 5 0 0 0;
#X connect 7 0 6 0;
#X connect 8 0 7 1;
#X connect 10 0 2 0;
#X connect 10 1 3 0;
#X connect 10 2 4 0;
#X connect 11 0 2 1;
#X connect 12 0 3 1;
#X connect 13 0 6 1;
#X connect 14 0 6 2;
#X connect 15 0 5 0;
#X connect 16 0 4 1;
#X connect 17 0 18 0;
#X connect 18 0 10 0;
