#N canvas 278 393 450 300 10;
#X obj 156 109 list split 1;
#X obj 271 112 inlet;
#X obj 156 27 inlet;
#X obj 157 279 outlet;
#X obj 156 220 list prepend;
#X obj 247 276 outlet;
#X obj 157 248 list trim;
#X obj 246 245 list trim;
#X obj 276 175 list;
#X obj 158 53 t a a;
#X obj 228 164 t b;
#X obj 156 161 sel \$1;
#X connect 0 0 11 0;
#X connect 0 1 4 1;
#X connect 1 0 11 1;
#X connect 2 0 9 0;
#X connect 4 0 6 0;
#X connect 6 0 3 0;
#X connect 7 0 5 0;
#X connect 8 0 7 0;
#X connect 9 0 0 0;
#X connect 9 1 8 1;
#X connect 10 0 8 0;
#X connect 11 0 4 0;
#X connect 11 1 10 0;
