#N canvas 665 44 604 505 10;
#X declare -path ../externals;
#X obj 23 192 gemwin;
#X msg 42 147 destroy;
#X obj 335 58 cnv 15 190 150 empty empty turn_on_off 20 12 0 14 -261682
-66577 0;
#X obj 492 475 s /freenect;
#X floatatom 492 429 5 0 0 0 - - -;
#X msg 492 451 angle \$1;
#X text 50 98 create gemwindow;
#X obj 342 292 bng 15 250 50 0 empty empty parameters_to_start 17 7
0 10 -262144 -1 -1;
#X text 14 474 (C)2012 Matthias Kronlachner;
#X msg 23 119 dimen 640 480 \, color 0 0 0 \, create \, 1;
#X obj 434 4 declare -path ../externals;
#N canvas 476 447 803 246 DRAW-SMALL-VIDEOS 0;
#X obj 33 89 pix_texture;
#X obj 33 156 rectangle 1 0.75;
#X obj 253 89 pix_texture;
#X obj 253 156 rectangle 1 0.75;
#X text 149 10 draw kinect pictures on bottom left;
#X obj 33 52 gemhead 5;
#X obj 253 52 gemhead 5;
#X obj 33 114 translateXYZ -4 -3 0.1;
#X obj 253 114 translateXYZ -2 -3 0.1;
#X obj 96 65 r /kinect/tex-id/rgb;
#X obj 316 58 r /kinect/tex-id/depth;
#X connect 0 0 7 0;
#X connect 2 0 8 0;
#X connect 5 0 0 0;
#X connect 6 0 2 0;
#X connect 7 0 1 0;
#X connect 8 0 3 0;
#X connect 9 0 0 1;
#X connect 10 0 2 1;
#X restore 22 299 pd DRAW-SMALL-VIDEOS;
#X text 351 448 change angle of kinect;
#X text 6 5 user tracking with OpenNI/NITE user detection;
#X obj 24 231 openni-interface;
#X obj 342 236 r init;
#X obj 109 161 tgl 15 0 empty empty empty 17 7 0 10 -262144 -1 -1 0
1;
#N canvas 507 114 579 264 USE-NITE-USER-DATA 0;
#X obj 54 32 r /openni/msg;
#X obj 388 132 s /openni;
#X msg 388 103 userinfo;
#X obj 388 73 metro 200;
#X obj 388 48 tgl 15 0 empty empty empty 17 7 0 10 -262144 -1 -1 1
1;
#X obj 230 61 print;
#N canvas 410 392 450 300 text-numusers 0;
#X obj 47 30 inlet;
#X obj 139 88 gemhead;
#X obj 139 212 text3d;
#X obj 182 165 loadbang;
#X obj 47 52 list prepend text;
#X obj 47 74 list trim;
#X msg 222 186 justify right base;
#X obj 139 110 translateXYZ 3 3.5 0.1;
#X obj 139 140 color 1 1 0 1;
#X msg 182 187 4;
#X obj 166 59 r nite-userdata;
#X connect 0 0 4 0;
#X connect 1 0 7 0;
#X connect 3 0 9 0;
#X connect 3 0 6 0;
#X connect 4 0 5 0;
#X connect 5 0 2 0;
#X connect 6 0 2 1;
#X connect 7 0 8 0;
#X connect 8 0 2 0;
#X connect 9 0 2 1;
#X connect 10 0 1 0;
#X restore 111 104 pd text-numusers;
#X obj 54 75 route user;
#X obj 388 16 r nite-userdata;
#N canvas 739 328 496 428 draw-user-number-1 0;
#X obj 87 27 inlet;
#X obj 48 411 text3d;
#X obj 91 364 loadbang;
#X obj 283 238 list trim;
#X msg 121 385 justify right base;
#X msg 91 386 4;
#X obj 48 269 translateXYZ 0 0 0.1;
#X obj 48 339 color 0 1 0 1;
#X obj 284 187 list prepend text user1 z:;
#X obj 87 105 unpack 0 0 0 0;
#X obj 87 68 route 1;
#X obj 139 138 + -0.5;
#X obj 87 138 + -0.5;
#X obj 87 160 * -4;
#X obj 139 160 * -4;
#X obj 48 294 t a a;
#X obj 216 325 color 0 0 0 0.5;
#X obj 48 249 alpha;
#X text 131 27 userid \, is_skeleton_tracking \, x \, y \, z;
#X obj 48 187 gemhead;
#X obj 216 349 rectangle 1.5 0.21;
#X obj -30 142 r nite-userdata;
#X obj 48 217 spigot 0;
#X obj 216 116 t b;
#X msg 216 140 1;
#X connect 0 0 10 0;
#X connect 2 0 5 0;
#X connect 2 0 4 0;
#X connect 3 0 1 0;
#X connect 4 0 1 1;
#X connect 5 0 1 1;
#X connect 6 0 15 0;
#X connect 7 0 1 0;
#X connect 8 0 3 0;
#X connect 9 1 12 0;
#X connect 9 2 11 0;
#X connect 9 3 8 0;
#X connect 10 0 9 0;
#X connect 10 0 23 0;
#X connect 11 0 14 0;
#X connect 12 0 13 0;
#X connect 13 0 6 1;
#X connect 14 0 6 2;
#X connect 15 0 7 0;
#X connect 15 1 16 0;
#X connect 16 0 20 0;
#X connect 17 0 6 0;
#X connect 19 0 22 0;
#X connect 21 0 19 0;
#X connect 22 0 17 0;
#X connect 23 0 24 0;
#X connect 24 0 22 1;
#X restore 78 154 pd draw-user-number-1;
#N canvas 711 240 496 428 draw-user-number-2 0;
#X obj 87 27 inlet;
#X obj 48 411 text3d;
#X obj 91 364 loadbang;
#X obj 283 238 list trim;
#X msg 121 385 justify right base;
#X msg 91 386 4;
#X obj 48 269 translateXYZ 0 0 0.1;
#X obj 48 339 color 0 1 0 1;
#X obj 87 105 unpack 0 0 0 0;
#X obj 139 138 + -0.5;
#X obj 87 138 + -0.5;
#X obj 87 160 * -4;
#X obj 139 160 * -4;
#X obj 48 294 t a a;
#X obj 216 325 color 0 0 0 0.5;
#X obj 48 249 alpha;
#X text 131 27 userid \, is_skeleton_tracking \, x \, y \, z;
#X obj 48 187 gemhead;
#X obj 216 349 rectangle 1.5 0.21;
#X obj -30 142 r nite-userdata;
#X obj 48 217 spigot 0;
#X obj 216 116 t b;
#X msg 216 140 1;
#X obj 87 68 route 2;
#X obj 284 187 list prepend text user2 z:;
#X connect 0 0 23 0;
#X connect 2 0 5 0;
#X connect 2 0 4 0;
#X connect 3 0 1 0;
#X connect 4 0 1 1;
#X connect 5 0 1 1;
#X connect 6 0 13 0;
#X connect 7 0 1 0;
#X connect 8 1 10 0;
#X connect 8 2 9 0;
#X connect 8 3 24 0;
#X connect 9 0 12 0;
#X connect 10 0 11 0;
#X connect 11 0 6 1;
#X connect 12 0 6 2;
#X connect 13 0 7 0;
#X connect 13 1 14 0;
#X connect 14 0 18 0;
#X connect 15 0 6 0;
#X connect 17 0 20 0;
#X connect 19 0 17 0;
#X connect 20 0 15 0;
#X connect 21 0 22 0;
#X connect 22 0 20 1;
#X connect 23 0 8 0;
#X connect 23 0 21 0;
#X connect 24 0 3 0;
#X restore 54 182 pd draw-user-number-2;
#N canvas 711 240 496 428 draw-user-number-3 0;
#X obj 87 27 inlet;
#X obj 48 411 text3d;
#X obj 91 364 loadbang;
#X obj 283 238 list trim;
#X msg 121 385 justify right base;
#X msg 91 386 4;
#X obj 48 269 translateXYZ 0 0 0.1;
#X obj 48 339 color 0 1 0 1;
#X obj 87 105 unpack 0 0 0 0;
#X obj 139 138 + -0.5;
#X obj 87 138 + -0.5;
#X obj 87 160 * -4;
#X obj 139 160 * -4;
#X obj 48 294 t a a;
#X obj 216 325 color 0 0 0 0.5;
#X obj 48 249 alpha;
#X text 131 27 userid \, is_skeleton_tracking \, x \, y \, z;
#X obj 48 187 gemhead;
#X obj 216 349 rectangle 1.5 0.21;
#X obj -30 142 r nite-userdata;
#X obj 48 217 spigot 0;
#X obj 216 116 t b;
#X msg 216 140 1;
#X obj 87 68 route 3;
#X obj 284 187 list prepend text user3 z:;
#X connect 0 0 23 0;
#X connect 2 0 5 0;
#X connect 2 0 4 0;
#X connect 3 0 1 0;
#X connect 4 0 1 1;
#X connect 5 0 1 1;
#X connect 6 0 13 0;
#X connect 7 0 1 0;
#X connect 8 1 10 0;
#X connect 8 2 9 0;
#X connect 8 3 24 0;
#X connect 9 0 12 0;
#X connect 10 0 11 0;
#X connect 11 0 6 1;
#X connect 12 0 6 2;
#X connect 13 0 7 0;
#X connect 13 1 14 0;
#X connect 14 0 18 0;
#X connect 15 0 6 0;
#X connect 17 0 20 0;
#X connect 19 0 17 0;
#X connect 20 0 15 0;
#X connect 21 0 22 0;
#X connect 22 0 20 1;
#X connect 23 0 8 0;
#X connect 23 0 21 0;
#X connect 24 0 3 0;
#X restore 34 212 pd draw-user-number-3;
#X connect 0 0 7 0;
#X connect 2 0 1 0;
#X connect 3 0 2 0;
#X connect 4 0 3 0;
#X connect 7 0 10 0;
#X connect 7 0 9 0;
#X connect 7 0 11 0;
#X connect 7 1 6 0;
#X connect 8 0 4 0;
#X restore 27 368 pd USE-NITE-USER-DATA;
#X obj 349 89 tgl 15 0 nite-userdata nite-userdata nite-userdata 17
7 0 10 -262144 -1 -1 1 1;
#X obj 342 261 delay 2000;
#X text 33 22 display with OpenGL shader!;
#X text 10 49 you cannot use pix_multiblob here \,;
#X text 27 67 because mask is computed on GPU!;
#N canvas 43 33 717 596 SHADER-MASK-DRAW 0;
#X obj 62 444 glsl_program;
#X obj 62 315 glsl_fragment;
#X msg 137 361 link \$1;
#X obj 62 521 pix_texture;
#X obj 74 468 loadbang;
#X msg 74 491 rectangle 1;
#X obj 135 193 gemhead;
#X obj 135 233 route 1;
#X obj 135 254 delay 1000;
#X obj 135 213 route gem_state;
#X obj 115 412 r shader-prop;
#X obj 62 58 tgl 15 0 empty empty empty 17 7 0 10 -262144 -1 -1 1 1
;
#X obj 62 80 gemhead 10;
#X obj 62 131 gemframebuffer;
#X text 87 51 get mask into framebuffer;
#X obj 267 47 loadbang;
#X obj 62 566 mesh_square 50;
#X msg 143 543 4;
#X obj 143 518 loadbang;
#X obj 62 171 translateXYZ 0 0 -4;
#X obj 425 394 pix_texture;
#X obj 425 461 rectangle 4 3;
#X obj 425 289 gemhead 15;
#X obj 425 427 translateXYZ 0 0 0;
#X obj 62 30 loadbang;
#X obj 425 264 tgl 15 0 empty empty empty 17 7 0 10 -262144 -1 -1 0
1;
#X msg 267 75 rectangle 1 \, format RGBA \, dimen 640 640 \, type BYTE
\, color 0 0 0;
#X obj 425 346 alpha;
#X obj 162 309 s gem-init;
#X obj 488 368 r /kinect/tex-id/shader;
#X obj 206 162 s /kinect/tex-id/shader;
#X obj 188 459 r /kinect/tex-id/depth;
#X text 439 235 DRAW BIG MASK;
#X text 81 5 SHADER PART;
#X msg 135 277 open user-filter.frag;
#X connect 0 0 3 0;
#X connect 1 0 0 0;
#X connect 1 1 2 0;
#X connect 2 0 0 0;
#X connect 3 0 16 0;
#X connect 4 0 5 0;
#X connect 5 0 3 0;
#X connect 6 0 9 0;
#X connect 7 0 8 0;
#X connect 8 0 34 0;
#X connect 8 0 28 0;
#X connect 9 0 7 0;
#X connect 10 0 0 0;
#X connect 11 0 12 0;
#X connect 12 0 13 0;
#X connect 13 0 19 0;
#X connect 13 1 30 0;
#X connect 15 0 26 0;
#X connect 17 0 16 1;
#X connect 18 0 17 0;
#X connect 19 0 1 0;
#X connect 20 0 23 0;
#X connect 22 0 27 0;
#X connect 23 0 21 0;
#X connect 24 0 11 0;
#X connect 25 0 22 0;
#X connect 26 0 13 0;
#X connect 27 0 20 0;
#X connect 29 0 20 1;
#X connect 31 0 3 1;
#X connect 34 0 1 0;
#X restore 21 329 pd SHADER-MASK-DRAW;
#X msg 342 314 \; /openni usergen 1 \; /openni usercoloring 1 \; /openni
depth_output 2 \; /openni real_world_coords 0 \; nite-userdata 1 \;
;
#X connect 1 0 0 0;
#X connect 4 0 5 0;
#X connect 5 0 3 0;
#X connect 7 0 24 0;
#X connect 9 0 0 0;
#X connect 15 0 19 0;
#X connect 16 0 0 0;
#X connect 19 0 7 0;
