#N canvas 665 44 604 505 10;
#X declare -path ../externals;
#X obj 23 192 gemwin;
#X msg 42 147 destroy;
#X obj 335 58 cnv 15 190 150 empty empty turn_on_off 20 12 0 14 -261682
-66577 0;
#X obj 492 475 s /freenect;
#X floatatom 492 429 5 0 0 0 - - -;
#X msg 492 451 angle \$1;
#X text 174 326 alpha mask;
#X text 50 98 create gemwindow;
#X obj 342 292 bng 15 250 50 0 empty empty parameters_to_start 17 7
0 10 -262144 -1 -1;
#X text 14 474 (C)2012 Matthias Kronlachner;
#X msg 23 119 dimen 640 480 \, color 0 0 0 \, create \, 1;
#X obj 434 4 declare -path ../externals;
#N canvas 476 447 803 246 DRAW-SMALL-VIDEOS 1;
#X obj 33 89 pix_texture;
#X obj 33 156 rectangle 1 0.75;
#X obj 253 129 pix_texture;
#X obj 253 186 rectangle 1 0.75;
#X text 149 10 draw kinect pictures on bottom left;
#X obj 33 52 gemhead 5;
#X obj 33 114 translateXYZ -4 -3 0.1;
#X obj 253 164 translateXYZ -2 -3 0.1;
#X obj 503 141 pix_texture;
#X obj 503 196 rectangle 1 0.75;
#X obj 503 164 translateXYZ 0 -3 0.1;
#X obj 96 65 r /kinect/tex-id/rgb;
#X obj 503 121 pix_depth2rgba 8000;
#X obj 503 100 pix_separator;
#X obj 253 84 t a a;
#X obj 253 52 r /kinect/gemlist/depth;
#X obj 503 80 separator;
#X obj 253 108 separator;
#X connect 0 0 6 0;
#X connect 2 0 7 0;
#X connect 5 0 0 0;
#X connect 6 0 1 0;
#X connect 7 0 3 0;
#X connect 8 0 10 0;
#X connect 10 0 9 0;
#X connect 11 0 0 1;
#X connect 12 0 8 0;
#X connect 13 0 12 0;
#X connect 14 0 17 0;
#X connect 14 1 16 0;
#X connect 15 0 14 0;
#X connect 16 0 13 0;
#X connect 17 0 2 0;
#X restore 22 299 pd DRAW-SMALL-VIDEOS;
#X text 351 448 change angle of kinect;
#N canvas 696 324 483 373 BLOB-DETECTION 0;
#X obj 75 33 cnv 15 185 120 empty empty empty 20 12 0 14 -24198 -66577
0;
#X floatatom 87 50 3 0 100 2 threshold - -;
#X obj 87 67 / 100;
#X msg 87 88 threshold \$1;
#X floatatom 177 50 3 0 100 2 blobsize - -;
#X obj 177 67 / 100;
#X msg 177 88 blobSize \$1;
#X floatatom 187 186 5 0 0 1 x - -;
#X floatatom 188 202 5 0 0 1 y - -;
#X floatatom 188 218 5 0 0 1 size - -;
#X floatatom 189 234 5 0 0 1 minX - -;
#X floatatom 189 250 5 0 0 1 minY - -;
#X floatatom 190 266 5 0 0 1 maxX - -;
#X floatatom 190 282 5 0 0 1 maxY - -;
#X floatatom 191 298 5 0 0 1 area - -;
#N canvas 95 114 687 354 showblob 0;
#X obj 67 86 inlet blobinformation;
#X msg 67 114 \$3 \$4 \$5 \$6 \$7 \$8 \$9 \$10;
#X obj 67 138 unpack 0 0 0 0 0 0 0 0;
#X obj 67 167 outlet weightedX;
#X obj 88 187 outlet weightedY;
#X obj 109 207 outlet weightedSize;
#X obj 156 236 outlet minX;
#X obj 177 256 outlet minY;
#X obj 243 236 outlet maxX;
#X obj 283 261 outlet maxY;
#X obj 348 238 outlet size;
#X text 60 45 this extracts information of the 1st detected blob;
#N canvas 517 405 450 300 rectangle 0;
#X obj 68 75 inlet;
#X obj 215 -1 inlet;
#X obj 68 257 rectangle;
#X obj 68 234 translateXYZ;
#X obj 215 69 unpack 0 0 0 0;
#X obj 215 94 +;
#X obj 254 95 +;
#X text 248 125 0..2;
#X text 250 145 -1..+1;
#X obj 340 148 -;
#X obj 377 149 -;
#X obj 193 124 - 1;
#X obj 193 147 * 4;
#X obj 222 123 - 1;
#X obj 340 180 * -4;
#X obj 377 180 * -4;
#X obj 222 146 * -4;
#X connect 0 0 3 0;
#X connect 1 0 4 0;
#X connect 3 0 2 0;
#X connect 4 0 5 0;
#X connect 4 0 9 0;
#X connect 4 1 5 1;
#X connect 4 1 9 1;
#X connect 4 2 6 0;
#X connect 4 2 10 0;
#X connect 4 3 6 1;
#X connect 4 3 10 1;
#X connect 5 0 11 0;
#X connect 6 0 13 0;
#X connect 9 0 14 0;
#X connect 10 0 15 0;
#X connect 11 0 12 0;
#X connect 12 0 3 1;
#X connect 13 0 16 0;
#X connect 14 0 2 1;
#X connect 15 0 2 2;
#X connect 16 0 3 2;
#X restore 346 188 pd rectangle;
#X obj 346 117 color 1 1 1 0.5;
#X obj 346 96 gemhead 70;
#X obj 346 138 alpha;
#X msg 415 164 \$6 \$8 \$7 \$9;
#X connect 0 0 1 0;
#X connect 0 0 16 0;
#X connect 1 0 2 0;
#X connect 2 0 3 0;
#X connect 2 1 4 0;
#X connect 2 2 5 0;
#X connect 2 3 6 0;
#X connect 2 4 7 0;
#X connect 2 5 8 0;
#X connect 2 6 9 0;
#X connect 2 7 10 0;
#X connect 13 0 15 0;
#X connect 14 0 13 0;
#X connect 15 0 12 0;
#X connect 16 0 12 1;
#X restore 165 161 pd showblob 1;
#X obj 75 122 pix_multiblob 6;
#X obj 12 -6 r /kinect/gemlist/threshold;
#N canvas 230 185 362 302 showblob 0;
#X obj 157 48 inlet blobinformation;
#N canvas 517 405 450 300 rectangle 0;
#X obj 68 75 inlet;
#X obj 215 -1 inlet;
#X obj 68 257 rectangle;
#X obj 68 234 translateXYZ;
#X obj 215 69 unpack 0 0 0 0;
#X obj 215 94 +;
#X obj 254 95 +;
#X text 248 125 0..2;
#X text 250 145 -1..+1;
#X obj 340 148 -;
#X obj 377 149 -;
#X obj 193 124 - 1;
#X obj 193 147 * 4;
#X obj 222 123 - 1;
#X obj 340 180 * -4;
#X obj 377 180 * -4;
#X obj 222 146 * -4;
#X connect 0 0 3 0;
#X connect 1 0 4 0;
#X connect 3 0 2 0;
#X connect 4 0 5 0;
#X connect 4 0 9 0;
#X connect 4 1 5 1;
#X connect 4 1 9 1;
#X connect 4 2 6 0;
#X connect 4 2 10 0;
#X connect 4 3 6 1;
#X connect 4 3 10 1;
#X connect 5 0 11 0;
#X connect 6 0 13 0;
#X connect 9 0 14 0;
#X connect 10 0 15 0;
#X connect 11 0 12 0;
#X connect 12 0 3 1;
#X connect 13 0 16 0;
#X connect 14 0 2 1;
#X connect 15 0 2 2;
#X connect 16 0 3 2;
#X restore 53 188 pd rectangle;
#X obj 53 117 color 1 1 1 0.5;
#X obj 53 96 gemhead 70;
#X obj 53 138 alpha;
#X msg 122 164 \$14 \$16 \$15 \$17;
#X connect 0 0 5 0;
#X connect 2 0 4 0;
#X connect 3 0 2 0;
#X connect 4 0 1 0;
#X connect 5 0 1 1;
#X restore 290 168 pd showblob 2;
#X text 53 323 parsing the blobs should done with some more logic!
;
#X text 157 339 eg. iemmatrix;
#X text 252 9 taken from pix_multiblob help file;
#X obj 12 55 spigot 0;
#X obj 57 14 r blob-detection;
#X connect 1 0 2 0;
#X connect 2 0 3 0;
#X connect 3 0 16 0;
#X connect 4 0 5 0;
#X connect 5 0 6 0;
#X connect 6 0 16 0;
#X connect 15 0 7 0;
#X connect 15 1 8 0;
#X connect 15 2 9 0;
#X connect 15 3 10 0;
#X connect 15 4 11 0;
#X connect 15 5 12 0;
#X connect 15 6 13 0;
#X connect 15 7 14 0;
#X connect 16 1 15 0;
#X connect 16 1 18 0;
#X connect 17 0 22 0;
#X connect 22 0 16 0;
#X connect 23 0 22 1;
#X restore 23 366 pd BLOB-DETECTION;
#X text 33 22 and pix_multiblob;
#X text 6 5 user tracking with OpenNI/NITE user detection;
#X obj 24 231 openni-interface;
#X obj 342 236 r init;
#X obj 109 161 tgl 15 0 empty empty empty 17 7 0 10 -262144 -1 -1 0
1;
#N canvas 666 153 502 431 DRAW-AND-FILTER-MASK 0;
#X obj 46 27 r /kinect/gemlist/depth;
#X obj 46 146 pix_texture;
#X obj 46 384 rectangle 4 3;
#X obj 46 350 translateXYZ 0 0 0;
#X obj 46 289 gemhead;
#X obj 46 320 pix_texture;
#X obj 157 206 s /kinect/tex-id/mask;
#X text 79 1 FILTER DEPTHMAP;
#X text 50 270 DRAW IT;
#X obj 46 185 s /kinect/gemlist/threshold;
#X msg 83 75 1;
#X obj 46 97 pix_threshold;
#X obj 83 53 loadbang;
#X text 138 96 filter out background;
#X text 120 73 persons are white therefore everything else is filtered
out!;
#X connect 0 0 11 0;
#X connect 1 0 9 0;
#X connect 1 1 5 1;
#X connect 1 1 6 0;
#X connect 3 0 2 0;
#X connect 4 0 5 0;
#X connect 5 0 3 0;
#X connect 10 0 11 1;
#X connect 11 0 1 0;
#X connect 12 0 10 0;
#X restore 22 330 pd DRAW-AND-FILTER-MASK;
#N canvas 507 114 579 264 USE-NITE-USER-DATA 0;
#X obj 54 32 r /openni/msg;
#X obj 388 132 s /openni;
#X msg 388 103 userinfo;
#X obj 388 73 metro 200;
#X obj 388 48 tgl 15 0 empty empty empty 17 7 0 10 -262144 -1 -1 1
1;
#X obj 230 61 print;
#N canvas 410 392 450 300 text-numusers 0;
#X obj 47 30 inlet;
#X obj 139 88 gemhead;
#X obj 139 212 text3d;
#X obj 182 165 loadbang;
#X obj 47 52 list prepend text;
#X obj 47 74 list trim;
#X msg 222 186 justify right base;
#X obj 139 110 translateXYZ 3 3.5 0.1;
#X obj 139 140 color 1 1 0 1;
#X msg 182 187 4;
#X obj 166 59 r nite-userdata;
#X connect 0 0 4 0;
#X connect 1 0 7 0;
#X connect 3 0 9 0;
#X connect 3 0 6 0;
#X connect 4 0 5 0;
#X connect 5 0 2 0;
#X connect 6 0 2 1;
#X connect 7 0 8 0;
#X connect 8 0 2 0;
#X connect 9 0 2 1;
#X connect 10 0 1 0;
#X restore 111 104 pd text-numusers;
#X obj 54 75 route user;
#X obj 388 16 r nite-userdata;
#N canvas 739 328 496 428 draw-user-number-1 0;
#X obj 87 27 inlet;
#X obj 48 411 text3d;
#X obj 91 364 loadbang;
#X obj 283 238 list trim;
#X msg 121 385 justify right base;
#X msg 91 386 4;
#X obj 48 269 translateXYZ 0 0 0.1;
#X obj 48 339 color 0 1 0 1;
#X obj 284 187 list prepend text user1 z:;
#X obj 87 105 unpack 0 0 0 0;
#X obj 87 68 route 1;
#X obj 139 138 + -0.5;
#X obj 87 138 + -0.5;
#X obj 87 160 * -4;
#X obj 139 160 * -4;
#X obj 48 294 t a a;
#X obj 216 325 color 0 0 0 0.5;
#X obj 48 249 alpha;
#X text 131 27 userid \, is_skeleton_tracking \, x \, y \, z;
#X obj 48 187 gemhead;
#X obj 216 349 rectangle 1.5 0.21;
#X obj -30 142 r nite-userdata;
#X obj 48 217 spigot 0;
#X obj 216 116 t b;
#X msg 216 140 1;
#X connect 0 0 10 0;
#X connect 2 0 5 0;
#X connect 2 0 4 0;
#X connect 3 0 1 0;
#X connect 4 0 1 1;
#X connect 5 0 1 1;
#X connect 6 0 15 0;
#X connect 7 0 1 0;
#X connect 8 0 3 0;
#X connect 9 1 12 0;
#X connect 9 2 11 0;
#X connect 9 3 8 0;
#X connect 10 0 9 0;
#X connect 10 0 23 0;
#X connect 11 0 14 0;
#X connect 12 0 13 0;
#X connect 13 0 6 1;
#X connect 14 0 6 2;
#X connect 15 0 7 0;
#X connect 15 1 16 0;
#X connect 16 0 20 0;
#X connect 17 0 6 0;
#X connect 19 0 22 0;
#X connect 21 0 19 0;
#X connect 22 0 17 0;
#X connect 23 0 24 0;
#X connect 24 0 22 1;
#X restore 78 154 pd draw-user-number-1;
#N canvas 711 240 496 428 draw-user-number-2 0;
#X obj 87 27 inlet;
#X obj 48 411 text3d;
#X obj 91 364 loadbang;
#X obj 283 238 list trim;
#X msg 121 385 justify right base;
#X msg 91 386 4;
#X obj 48 269 translateXYZ 0 0 0.1;
#X obj 48 339 color 0 1 0 1;
#X obj 87 105 unpack 0 0 0 0;
#X obj 139 138 + -0.5;
#X obj 87 138 + -0.5;
#X obj 87 160 * -4;
#X obj 139 160 * -4;
#X obj 48 294 t a a;
#X obj 216 325 color 0 0 0 0.5;
#X obj 48 249 alpha;
#X text 131 27 userid \, is_skeleton_tracking \, x \, y \, z;
#X obj 48 187 gemhead;
#X obj 216 349 rectangle 1.5 0.21;
#X obj -30 142 r nite-userdata;
#X obj 48 217 spigot 0;
#X obj 216 116 t b;
#X msg 216 140 1;
#X obj 87 68 route 2;
#X obj 284 187 list prepend text user2 z:;
#X connect 0 0 23 0;
#X connect 2 0 5 0;
#X connect 2 0 4 0;
#X connect 3 0 1 0;
#X connect 4 0 1 1;
#X connect 5 0 1 1;
#X connect 6 0 13 0;
#X connect 7 0 1 0;
#X connect 8 1 10 0;
#X connect 8 2 9 0;
#X connect 8 3 24 0;
#X connect 9 0 12 0;
#X connect 10 0 11 0;
#X connect 11 0 6 1;
#X connect 12 0 6 2;
#X connect 13 0 7 0;
#X connect 13 1 14 0;
#X connect 14 0 18 0;
#X connect 15 0 6 0;
#X connect 17 0 20 0;
#X connect 19 0 17 0;
#X connect 20 0 15 0;
#X connect 21 0 22 0;
#X connect 22 0 20 1;
#X connect 23 0 8 0;
#X connect 23 0 21 0;
#X connect 24 0 3 0;
#X restore 54 182 pd draw-user-number-2;
#N canvas 711 240 496 428 draw-user-number-3 0;
#X obj 87 27 inlet;
#X obj 48 411 text3d;
#X obj 91 364 loadbang;
#X obj 283 238 list trim;
#X msg 121 385 justify right base;
#X msg 91 386 4;
#X obj 48 269 translateXYZ 0 0 0.1;
#X obj 48 339 color 0 1 0 1;
#X obj 87 105 unpack 0 0 0 0;
#X obj 139 138 + -0.5;
#X obj 87 138 + -0.5;
#X obj 87 160 * -4;
#X obj 139 160 * -4;
#X obj 48 294 t a a;
#X obj 216 325 color 0 0 0 0.5;
#X obj 48 249 alpha;
#X text 131 27 userid \, is_skeleton_tracking \, x \, y \, z;
#X obj 48 187 gemhead;
#X obj 216 349 rectangle 1.5 0.21;
#X obj -30 142 r nite-userdata;
#X obj 48 217 spigot 0;
#X obj 216 116 t b;
#X msg 216 140 1;
#X obj 87 68 route 3;
#X obj 284 187 list prepend text user3 z:;
#X connect 0 0 23 0;
#X connect 2 0 5 0;
#X connect 2 0 4 0;
#X connect 3 0 1 0;
#X connect 4 0 1 1;
#X connect 5 0 1 1;
#X connect 6 0 13 0;
#X connect 7 0 1 0;
#X connect 8 1 10 0;
#X connect 8 2 9 0;
#X connect 8 3 24 0;
#X connect 9 0 12 0;
#X connect 10 0 11 0;
#X connect 11 0 6 1;
#X connect 12 0 6 2;
#X connect 13 0 7 0;
#X connect 13 1 14 0;
#X connect 14 0 18 0;
#X connect 15 0 6 0;
#X connect 17 0 20 0;
#X connect 19 0 17 0;
#X connect 20 0 15 0;
#X connect 21 0 22 0;
#X connect 22 0 20 1;
#X connect 23 0 8 0;
#X connect 23 0 21 0;
#X connect 24 0 3 0;
#X restore 34 212 pd draw-user-number-3;
#X connect 0 0 7 0;
#X connect 2 0 1 0;
#X connect 3 0 2 0;
#X connect 4 0 3 0;
#X connect 7 0 10 0;
#X connect 7 0 9 0;
#X connect 7 0 11 0;
#X connect 7 1 6 0;
#X connect 8 0 4 0;
#X restore 146 367 pd USE-NITE-USER-DATA;
#X obj 349 89 tgl 15 0 nite-userdata nite-userdata nite-userdata 17
7 0 10 -262144 -1 -1 1 1;
#X obj 349 112 tgl 15 0 blob-detection blob-detection blob-detection
17 7 0 10 -262144 -1 -1 1 1;
#X obj 342 261 delay 2000;
#X msg 342 314 \; /openni usergen 1 \; /openni usercoloring 1 \; /openni
depth_output 0 \; /openni real_world_coords 0 \; nite-userdata 1 \;
blob-detection 1 \;;
#X connect 1 0 0 0;
#X connect 4 0 5 0;
#X connect 5 0 3 0;
#X connect 8 0 25 0;
#X connect 10 0 0 0;
#X connect 18 0 24 0;
#X connect 19 0 0 0;
#X connect 24 0 8 0;
