#N canvas 330 301 950 418 10;
#X obj 230 238 pix_texture;
#X obj 14 334 pix_texture;
#X text 411 2 get rgb and depth image from pix_freenect;
#X text 412 -12 init settings;
#X text 579 84 set libfreenect depth mode;
#X text 580 97 this will output an rgb-arranged;
#X text 579 112 depth map with values in mm;
#X text 610 205 R represents 3 most significant bits;
#X text 595 189 RGBA color space is used;
#X text 610 238 B is set to zero and A to 1;
#X text 610 221 G carries 8 least significant bits;
#X obj 489 125 s /freenect;
#X obj 487 224 s /freenect;
#X obj 80 100 r /freenect;
#X obj 489 61 r init;
#X obj 487 166 r init;
#X text 47 24 gemhead for rgb;
#X text 178 25 gemhead for depth stream;
#X text 180 115 arguments activate rgb and depth stream;
#X obj 786 31 bng 15 250 50 0 empty empty empty 17 7 0 10 -262144 -1
-1;
#X obj 786 51 s init;
#X obj 182 79 alpha 1;
#X obj 77 357 s /kinect/tex-id/rgb;
#X obj 230 288 s /kinect/gemlist/depth;
#X obj 293 263 s /kinect/tex-id/depth;
#X obj 14 377 s /kinect/gemlist/rgb;
#X obj 94 171 t a a;
#X obj 94 296 pix_texture;
#X obj 157 321 s /kinect/tex-id/depth-rgb;
#X obj 94 195 pix_separator;
#X text 239 338 for displaying!;
#X text 303 245 raw for measurement;
#N canvas 0 22 277 258 transparent 0;
#X obj 30 -2 inlet;
#X obj 30 134 outlet;
#X obj 30 75 pix_alpha;
#X floatatom 76 43 5 0 0 0 - - -;
#X msg 76 22 0.6;
#X obj 76 -2 loadbang;
#X text 119 41 make it transparent;
#X obj 116 19 r /kinect/depth/alpha;
#X connect 0 0 2 0;
#X connect 2 0 1 0;
#X connect 3 0 2 1;
#X connect 3 0 2 2;
#X connect 4 0 3 0;
#X connect 5 0 4 0;
#X connect 7 0 3 0;
#X restore 94 268 pd transparent;
#N canvas 779 95 401 294 depth2gradient 0;
#X obj 54 176 tgl 15 0 empty empty on/off 17 7 0 10 -262144 -1 -1 0
1;
#X obj 38 205 pix_depth2rgba 9000;
#X obj 149 46 vsl 15 128 0 10000 0 0 empty empty empty 0 -9 0 10 -262144
-1 -1 0 1;
#X floatatom 149 185 5 0 0 0 - - -;
#X obj 38 132 inlet;
#X obj 38 240 outlet;
#X text 45 16 convert raw depth data into "human-vision" color gradient
;
#X text 191 185 max distance in mm;
#X connect 0 0 1 0;
#X connect 1 0 5 0;
#X connect 2 0 3 0;
#X connect 3 0 1 2;
#X connect 4 0 1 0;
#X restore 94 233 pd depth2gradient;
#X text 181 193 copy pix for displaying;
#X text 503 35 switch to non aligned!!;
#X obj 311 48 tgl 15 0 empty empty empty 17 7 0 10 -262144 -1 -1 0
1;
#X msg 287 75 depth \$1;
#X msg 416 35 depth_mode 0;
#X msg 489 95 depth_mode 1;
#X msg 487 192 depth_output 0;
#X msg 12 80 angle \$1;
#X floatatom 12 59 5 0 0 0 - - -;
#X obj 65 135 pix_freenect 0 1 1;
#X obj 65 43 gemhead 3;
#X obj 182 46 gemhead 2;
#X connect 0 0 23 0;
#X connect 0 1 24 0;
#X connect 1 0 25 0;
#X connect 1 1 22 0;
#X connect 13 0 43 0;
#X connect 14 0 39 0;
#X connect 15 0 40 0;
#X connect 19 0 20 0;
#X connect 21 0 43 1;
#X connect 26 0 29 0;
#X connect 26 1 0 0;
#X connect 27 1 28 0;
#X connect 29 0 33 0;
#X connect 32 0 27 0;
#X connect 33 0 32 0;
#X connect 36 0 37 0;
#X connect 37 0 43 0;
#X connect 38 0 11 0;
#X connect 39 0 11 0;
#X connect 40 0 12 0;
#X connect 41 0 43 0;
#X connect 42 0 41 0;
#X connect 43 0 1 0;
#X connect 43 1 26 0;
#X connect 44 0 43 0;
#X connect 45 0 21 0;
