#N canvas 0 237 955 373 10;
#X obj 230 238 pix_texture;
#X obj 14 205 pix_texture;
#X obj 182 46 gemhead 3;
#X obj 65 43 gemhead 1;
#X text 412 -12 init settings;
#X obj 230 212 pix_alpha;
#X floatatom 245 185 5 0 0 0 - - -;
#X msg 245 164 0.6;
#X obj 245 140 loadbang;
#X text 304 212 make it transparent;
#X text 590 97 this will output an rgb-arranged;
#X msg 487 192 depth_output 2;
#X text 610 205 R represents 3 most significant bits;
#X text 595 189 RGBA color space is used;
#X text 595 173 set pix_freenect to output depth data in 11bit raw
format;
#X text 610 238 B is set to zero and A to 1;
#X text 610 221 G carries 8 least significant bits;
#X obj 489 61 r init;
#X obj 487 166 r init;
#X text 47 24 gemhead for rgb;
#X text 178 25 gemhead for depth stream;
#X text 180 115 arguments activate rgb and depth stream;
#X obj 786 31 bng 15 250 50 0 empty empty empty 17 7 0 10 -262144 -1
-1;
#X obj 786 51 s init;
#X obj 182 79 alpha 1;
#X text 411 2 get rgb and depth image from pix_openni;
#X obj 67 141 pix_openni 0 1 1 0 0;
#X msg 489 95 registration 1;
#X text 589 84 set depth to rgb registration;
#X text 589 112 depth map;
#X obj 489 125 s /openni;
#X obj 487 224 s /openni;
#X obj 78 104 r /openni;
#X obj 786 -20 loadbang;
#X obj 786 5 delay 2000;
#X obj 550 326 freenect 0;
#X obj 550 296 r /freenect;
#X text 631 310 for angle and led settings;
#X obj 14 288 s /kinect/gemlist/depth;
#X obj 230 289 s /kinect/gemlist/depth;
#X obj 297 160 r /kinect/depth/alpha;
#X obj 293 263 s /kinect/tex-id/depth;
#X obj 77 227 s /kinect/tex-id/rgb;
#X connect 0 0 39 0;
#X connect 0 1 41 0;
#X connect 1 0 38 0;
#X connect 1 1 42 0;
#X connect 2 0 24 0;
#X connect 3 0 26 0;
#X connect 5 0 0 0;
#X connect 6 0 5 1;
#X connect 6 0 5 2;
#X connect 7 0 6 0;
#X connect 8 0 7 0;
#X connect 11 0 31 0;
#X connect 17 0 27 0;
#X connect 18 0 11 0;
#X connect 22 0 23 0;
#X connect 24 0 26 1;
#X connect 26 0 1 0;
#X connect 26 1 5 0;
#X connect 27 0 30 0;
#X connect 32 0 26 0;
#X connect 33 0 34 0;
#X connect 34 0 22 0;
#X connect 36 0 35 0;
#X connect 40 0 6 0;
