#N canvas 565 97 691 576 10;
#X declare -path ../externals;
#X obj 14 319 pix_texture;
#X obj 398 104 gemwin;
#N canvas 733 105 450 300 freenect 1;
#X obj 24 72 gemhead 1;
#X obj 24 98 pix_freenect 0 1 1 0;
#N canvas 235 266 827 305 properties 1;
#X obj 95 235 outlet;
#X obj 3 -6 cnv 15 140 220 empty empty empty 20 12 0 14 -204800 -66577
0;
#X msg 8 178 led \$1;
#X obj 8 59 vradio 15 1 0 6 empty empty empty 0 -8 0 10 -262144 -1
-1 0;
#X floatatom 8 155 5 0 0 0 - - -;
#X msg 85 178 angle \$1;
#X obj 85 23 vsl 15 128 -30 30 0 0 empty empty empty 0 -9 0 10 -262144
-1 -1 0 1;
#X floatatom 85 159 5 0 0 0 - - -;
#X msg 85 -2 0;
#X text 24 73 GREEN;
#X text 25 57 OFF;
#X text 24 89 RED;
#X text 24 104 YELLOW;
#X text 24 119 BLINK_GR;
#X text 24 133 BLINK_R_Y;
#N canvas 230 389 894 267 video_modes 0;
#X msg 538 182 video_mode \$1;
#X obj 538 51 vradio 15 1 0 2 empty empty empty 0 -8 0 10 -262144 -1
-1 0;
#X floatatom 538 161 5 0 0 0 - - -;
#X msg 150 178 depth_mode \$1;
#X obj 150 80 vradio 15 1 0 3 empty empty empty 0 -8 0 10 -262144 -1
-1 0;
#X floatatom 150 160 5 0 0 0 - - -;
#X text 8 2 LIBFREENECT MODES:;
#X text 558 66 IR MODE;
#X text 559 51 RGB (use this);
#X obj 150 213 outlet;
#X text 125 2 this is just for experimenting...;
#X text 424 50 FREENECT_VIDEO_RGB;
#X text 24 113 FREENECT_DEPTH_11BIT;
#X text 41 80 FREENECT_DEPTH_MM;
#X text 67 27 DEPTH MODES;
#X text 520 26 RGB MODES;
#X text 149 27 !!also check depth_output!!;
#X obj 658 114 vradio 15 1 0 3 empty empty empty 0 -8 0 10 -262144
-1 -1 0;
#X floatatom 658 164 5 0 0 0 - - -;
#X msg 658 185 resolution \$1;
#X text 678 128 MEDIUM (default);
#X text 655 91 RGB RESOLUTION;
#X text 678 143 HIGH (restart rgb stream!);
#X text -6 97 FREENECT_DEPTH_REGISTERED;
#X text 678 113 LOW (not displaying correctly);
#X text 170 92 aligned to rgb \, output [mm];
#X text 169 78 unaligned \, output [mm];
#X text 170 107 raw depth;
#X connect 0 0 9 0;
#X connect 1 0 2 0;
#X connect 2 0 0 0;
#X connect 3 0 9 0;
#X connect 4 0 5 0;
#X connect 5 0 3 0;
#X connect 17 0 18 0;
#X connect 18 0 19 0;
#X connect 19 0 9 0;
#X restore 323 220 pd video_modes;
#X obj 149 84 cnv 15 320 120 empty empty empty 20 12 0 14 -4034 -66577
0;
#X obj 160 121 vradio 15 1 0 2 empty empty empty 0 -8 0 10 -262144
-1 -1 0;
#X floatatom 160 156 5 0 0 0 - - -;
#X obj 225 122 vradio 15 1 0 2 empty empty empty 0 -8 0 10 -262144
-1 -1 0;
#X floatatom 225 157 5 0 0 0 - - -;
#X msg 160 177 rgb \$1;
#X msg 225 178 depth \$1;
#X text 152 84 activate/deactivate streams;
#X text 154 98 save cpu power by just activating necessary streams!
;
#X obj 477 85 cnv 15 315 120 empty empty empty 20 12 0 14 -232576 -66577
0;
#X obj 480 108 vradio 15 1 0 2 empty empty empty 0 -8 0 10 -262144
-1 -1 0;
#X floatatom 480 160 5 0 0 0 - - -;
#X msg 480 179 depth_output \$1;
#X text 502 105 Raw -> 11 bit output;
#X text 638 120 b = 0 \, a = 0;
#X text 303 -23 properties for pix_freenect;
#X text 498 62 DEPTH OUTPUT;
#X text 171 63 STREAMS;
#X text 26 -25 LED \, ANGLE;
#X text 419 220 <- change between aligned depth output and so on...
;
#X text 636 106 r->3 msbits \, g ->8 lsbits;
#X text 503 123 YUV;
#X connect 2 0 0 0;
#X connect 3 0 4 0;
#X connect 4 0 2 0;
#X connect 5 0 0 0;
#X connect 6 0 7 0;
#X connect 7 0 5 0;
#X connect 8 0 6 0;
#X connect 15 0 0 0;
#X connect 17 0 18 0;
#X connect 18 0 21 0;
#X connect 19 0 20 0;
#X connect 20 0 22 0;
#X connect 21 0 0 0;
#X connect 22 0 0 0;
#X connect 26 0 27 0;
#X connect 27 0 28 0;
#X connect 28 0 0 0;
#X restore -21 23 pd properties;
#X obj 141 71 gemhead 1;
#X obj 43 139 outlet;
#X obj -6 139 outlet;
#X obj 253 13 loadbang;
#X text 335 66 aligned;
#X obj 115 18 r /freenect;
#X msg 250 45 depth_output 0;
#X msg 251 66 depth_mode 1;
#X text 342 44 rgba output;
#X connect 0 0 1 0;
#X connect 1 0 5 0;
#X connect 1 1 4 0;
#X connect 2 0 1 0;
#X connect 3 0 1 1;
#X connect 6 0 9 0;
#X connect 6 0 10 0;
#X connect 8 0 1 0;
#X connect 9 0 1 0;
#X connect 10 0 1 0;
#X restore 14 80 pd freenect;
#X msg 426 75 destroy;
#X obj 502 145 gemhead;
#X obj 502 184 world_light;
#X obj 218 205 route head_pose;
#X obj 218 229 route 0 1 2;
#X text 245 185 head_pose id x y z pitch yaw roll;
#X text 491 531 (C)2012 Matthias Kronlachner;
#X text 32 525 head pose estimation code by Gabriele Fanelli http://www.vision.ee.ethz.ch/~gfanelli/
;
#X text 88 77 depthmap from pix_freenect;
#X obj 267 341 tgl 15 0 empty empty move_head_from_data 17 7 0 10 -257985
-1 -1 0 1;
#X obj 317 357 tgl 15 0 empty empty rotate_head_from_data 17 7 0 10
-203904 -1 -1 0 1;
#X obj 14 365 rectangle 2 1.5;
#X obj 14 343 translateXYZ -2 -2 0;
#X obj 77 244 pix_texture;
#X obj 77 290 rectangle 2 1.5;
#X obj 77 268 translateXYZ 2.5 -2 0;
#X obj 77 216 pix_flip;
#X msg 96 193 horizontal;
#X obj 96 169 loadbang;
#N canvas 502 318 450 300 properties 0;
#X obj 103 231 outlet;
#X msg 48 111 maxv \$1;
#X floatatom 48 78 5 0 0 0 - - -;
#X floatatom 120 82 5 0 0 0 - - -;
#X msg 120 115 larger_radius_ratio \$1;
#X floatatom 283 82 5 0 0 0 - - -;
#X msg 283 115 smaller_radius_ratio \$1;
#X floatatom 40 160 5 0 0 0 - - -;
#X msg 40 193 stride \$1;
#X floatatom 132 162 5 0 0 0 - - -;
#X msg 132 195 max_z \$1;
#X floatatom 231 159 5 0 0 0 - - -;
#X msg 231 192 th \$1;
#X connect 1 0 0 0;
#X connect 2 0 1 0;
#X connect 3 0 4 0;
#X connect 4 0 0 0;
#X connect 5 0 6 0;
#X connect 6 0 0 0;
#X connect 7 0 8 0;
#X connect 8 0 0 0;
#X connect 9 0 10 0;
#X connect 10 0 0 0;
#X connect 11 0 12 0;
#X connect 12 0 0 0;
#X restore 101 108 pd properties;
#X text 14 11 pix_head_pose_estimation uses depth maps eg. from Kinect
sensor and tracks multiple human heads with 6 DOF;
#X obj 14 212 pix_flip;
#X msg 23 189 horizontal;
#X obj 23 165 loadbang;
#X text 52 56 can be used with pix_openni as well!;
#X msg 349 42 color 0 0 0 \, lighting 1 \, dimen 640 480 \, create
\, 1;
#N canvas 152 441 450 300 display-head-1 0;
#X obj 72 18 inlet;
#X obj 214 23 inlet;
#X obj 352 22 inlet;
#X obj 67 83 gemhead;
#X obj 97 268 model;
#X msg 108 243 open male-head.obj;
#X obj 115 199 loadbang;
#X msg 137 219 material 0;
#X obj 75 49 list split 3;
#N canvas 0 22 450 300 translate 0;
#X obj 89 125 / -60;
#X obj 131 125 / -80;
#X obj 170 101 - 800;
#X obj 170 125 / -200;
#X obj 27 212 outlet;
#X obj 144 66 unpack 0 0 0;
#X obj 145 46 spigot 0;
#X obj 27 39 inlet gemlist;
#X obj 145 19 inlet coord;
#X obj 260 18 inlet active;
#X obj 27 164 translateXYZ -2.5 1 0;
#X connect 0 0 10 1;
#X connect 1 0 10 2;
#X connect 2 0 3 0;
#X connect 3 0 10 3;
#X connect 5 0 0 0;
#X connect 5 1 1 0;
#X connect 5 2 2 0;
#X connect 6 0 5 0;
#X connect 7 0 10 0;
#X connect 8 0 6 0;
#X connect 9 0 6 1;
#X connect 10 0 4 0;
#X restore 67 120 pd translate;
#N canvas 0 22 450 300 rotate 0;
#X obj 27 212 outlet;
#X obj 144 66 unpack 0 0 0;
#X obj 27 39 inlet gemlist;
#X obj 145 19 inlet coord;
#X obj 260 18 inlet active;
#X obj 27 164 rotateXYZ;
#X obj 145 46 spigot 1;
#X connect 1 0 5 1;
#X connect 1 1 5 2;
#X connect 1 2 5 3;
#X connect 2 0 5 0;
#X connect 3 0 6 0;
#X connect 4 0 6 1;
#X connect 5 0 0 0;
#X connect 6 0 1 0;
#X restore 97 170 pd rotate;
#X connect 0 0 8 0;
#X connect 1 0 9 2;
#X connect 2 0 10 2;
#X connect 3 0 9 0;
#X connect 5 0 4 0;
#X connect 6 0 7 0;
#X connect 6 0 5 0;
#X connect 7 0 4 0;
#X connect 8 0 9 1;
#X connect 8 1 10 1;
#X connect 9 0 10 0;
#X connect 10 0 4 0;
#X restore 218 377 pd display-head-1;
#X obj 288 264 tgl 15 0 empty empty move_head_from_data 17 7 0 10 -257985
-1 -1 0 1;
#X obj 338 280 tgl 15 0 empty empty rotate_head_from_data 17 7 0 10
-203904 -1 -1 0 1;
#N canvas 152 441 450 300 display-head-2 0;
#X obj 72 18 inlet;
#X obj 214 23 inlet;
#X obj 352 22 inlet;
#X obj 67 83 gemhead;
#X obj 97 268 model;
#X msg 108 243 open male-head.obj;
#X obj 115 199 loadbang;
#X msg 137 219 material 0;
#X obj 75 49 list split 3;
#N canvas 0 22 450 300 translate 0;
#X obj 89 125 / -60;
#X obj 131 125 / -80;
#X obj 170 101 - 800;
#X obj 170 125 / -200;
#X obj 27 212 outlet;
#X obj 144 66 unpack 0 0 0;
#X obj 145 46 spigot 0;
#X obj 27 39 inlet gemlist;
#X obj 145 19 inlet coord;
#X obj 260 18 inlet active;
#X obj 27 165 translateXYZ 2.5 1 0;
#X connect 0 0 10 1;
#X connect 1 0 10 2;
#X connect 2 0 3 0;
#X connect 3 0 10 3;
#X connect 5 0 0 0;
#X connect 5 1 1 0;
#X connect 5 2 2 0;
#X connect 6 0 5 0;
#X connect 7 0 10 0;
#X connect 8 0 6 0;
#X connect 9 0 6 1;
#X connect 10 0 4 0;
#X restore 67 120 pd translate;
#N canvas 0 22 450 300 rotate 0;
#X obj 27 212 outlet;
#X obj 144 66 unpack 0 0 0;
#X obj 27 39 inlet gemlist;
#X obj 145 19 inlet coord;
#X obj 260 18 inlet active;
#X obj 27 164 rotateXYZ;
#X obj 145 46 spigot 1;
#X connect 1 0 5 1;
#X connect 1 1 5 2;
#X connect 1 2 5 3;
#X connect 2 0 5 0;
#X connect 3 0 6 0;
#X connect 4 0 6 1;
#X connect 5 0 0 0;
#X connect 6 0 1 0;
#X restore 97 170 pd rotate;
#X connect 0 0 8 0;
#X connect 1 0 9 2;
#X connect 2 0 10 2;
#X connect 3 0 9 0;
#X connect 5 0 4 0;
#X connect 6 0 7 0;
#X connect 6 0 5 0;
#X connect 7 0 4 0;
#X connect 8 0 9 1;
#X connect 8 1 10 1;
#X connect 9 0 10 0;
#X connect 10 0 4 0;
#X restore 239 300 pd display-head-2;
#X text 296 228 route different ids;
#X obj 533 394 s /freenect;
#X floatatom 533 341 5 0 0 0 - - -;
#X msg 533 374 angle \$1;
#X obj 77 136 pix_head_pose_estimation;
#X obj 417 9 declare -path ../externals;
#X connect 0 0 15 0;
#X connect 2 0 24 0;
#X connect 2 1 37 0;
#X connect 3 0 1 0;
#X connect 4 0 5 0;
#X connect 6 0 7 0;
#X connect 7 0 29 0;
#X connect 7 1 32 0;
#X connect 12 0 29 1;
#X connect 13 0 29 2;
#X connect 15 0 14 0;
#X connect 16 0 18 0;
#X connect 18 0 17 0;
#X connect 19 0 16 0;
#X connect 20 0 19 0;
#X connect 21 0 20 0;
#X connect 22 0 37 0;
#X connect 24 0 0 0;
#X connect 25 0 24 0;
#X connect 26 0 25 0;
#X connect 28 0 1 0;
#X connect 30 0 32 1;
#X connect 31 0 32 2;
#X connect 35 0 36 0;
#X connect 36 0 34 0;
#X connect 37 0 19 0;
#X connect 37 1 6 0;
