#N canvas 311 405 969 395 10;
#X obj 230 268 pix_texture;
#X obj 14 245 pix_texture;
#X obj 65 135 pix_freenect 0 1 1 0;
#X text 411 2 get rgb and depth image from pix_freenect;
#X text 412 -12 init settings;
#N canvas 0 22 450 300 init-trick 0;
#X obj 89 88 route 1;
#X obj 89 60 route gem_state;
#X obj 89 108 delay 2000;
#X obj 55 15 inlet;
#X obj 55 219 outlet;
#X obj 55 36 t a a;
#X msg 89 170 accel;
#X obj 89 191 s /freenect;
#X obj 136 158 s init;
#X obj 89 134 t b b;
#X connect 0 0 2 0;
#X connect 1 0 0 0;
#X connect 2 0 9 0;
#X connect 3 0 5 0;
#X connect 5 0 4 0;
#X connect 5 1 1 0;
#X connect 6 0 7 0;
#X connect 9 0 6 0;
#X connect 9 1 8 0;
#X restore 65 70 pd init-trick;
#X obj 230 212 pix_alpha;
#X floatatom 245 185 5 0 0 0 - - -;
#X obj 245 140 loadbang;
#X text 304 212 make it transparent;
#X text 579 84 set libfreenect depth mode;
#X text 580 97 this will output an rgb-arranged;
#X text 579 112 depth map with values in mm;
#X msg 487 192 depth_output 2;
#X text 610 205 R represents 3 most significant bits;
#X text 595 189 RGBA color space is used;
#X text 595 173 set pix_freenect to output depth data in 11bit raw
format;
#X text 610 238 B is set to zero and A to 1;
#X text 610 221 G carries 8 least significant bits;
#X obj 489 125 s /freenect;
#X obj 487 224 s /freenect;
#X obj 80 100 r /freenect;
#X obj 489 61 r init;
#X obj 487 166 r init;
#X text 47 24 gemhead for rgb;
#X text 177 25 gemhead for depth stream;
#X text 180 115 arguments activate rgb and depth stream;
#X obj 786 31 bng 15 250 50 0 empty empty empty 17 7 0 10 -262144 -1
-1;
#X obj 786 51 s init;
#X obj 182 79 alpha 1;
#X msg 44 212 rectangle 1 \, texunit 2;
#X msg 188 240 rectangle 1 \, texunit 3;
#X msg 303 75 depth \$1;
#X obj 303 48 tgl 15 0 empty empty empty 17 7 0 10 -262144 -1 -1 0
1;
#X obj 65 43 gemhead 1;
#X obj 182 46 gemhead 1;
#X msg 489 95 depth_mode 4;
#X obj 77 267 s /kinect/tex-id/rgb;
#X obj 293 293 s /kinect/tex-id/depth;
#X obj 230 318 s /kinect/gemlist/depth;
#X obj 297 160 r /kinect/depth/alpha;
#X msg 245 164 1;
#X connect 0 0 39 0;
#X connect 0 1 38 0;
#X connect 1 1 37 0;
#X connect 2 0 1 0;
#X connect 2 1 6 0;
#X connect 5 0 2 0;
#X connect 6 0 0 0;
#X connect 7 0 6 1;
#X connect 7 0 6 2;
#X connect 8 0 41 0;
#X connect 8 0 30 0;
#X connect 8 0 31 0;
#X connect 13 0 20 0;
#X connect 21 0 2 0;
#X connect 22 0 36 0;
#X connect 23 0 13 0;
#X connect 27 0 28 0;
#X connect 29 0 2 1;
#X connect 30 0 1 0;
#X connect 31 0 0 0;
#X connect 32 0 2 0;
#X connect 33 0 32 0;
#X connect 34 0 5 0;
#X connect 35 0 29 0;
#X connect 36 0 19 0;
#X connect 40 0 7 0;
#X connect 41 0 7 0;
