#N canvas 427 76 565 521 10;
#X declare -path ../externals;
#X obj 23 272 gemwin;
#X msg 42 227 destroy;
#X obj 345 38 cnv 15 190 80 empty empty turn_on_off 20 12 0 14 -261682
-66577 0;
#X obj 462 485 s /freenect;
#X floatatom 462 439 5 0 0 0 - - -;
#X msg 462 461 angle \$1;
#X text 50 178 create gemwindow;
#X obj 332 272 bng 15 250 50 0 empty empty parameters_to_start 17 7
0 10 -262144 -1 -1;
#X text 14 484 (C)2012 Matthias Kronlachner;
#X msg 23 199 dimen 640 480 \, color 0 0 0 \, create \, 1;
#X obj 377 5 declare -path ../externals;
#N canvas 476 447 528 208 DRAW-SMALL-VIDEOS 0;
#X obj 33 89 pix_texture;
#X obj 33 156 rectangle 1 0.75;
#X obj 253 89 pix_texture;
#X obj 253 156 rectangle 1 0.75;
#X text 149 10 draw kinect pictures on bottom left;
#X obj 33 52 gemhead 5;
#X obj 253 52 gemhead 5;
#X obj 33 114 translateXYZ -4 -3 0.1;
#X obj 253 114 translateXYZ -2 -3 0.1;
#X obj 96 65 r /kinect/tex-id/rgb;
#X obj 316 58 r /kinect/tex-id/depth;
#X connect 0 0 7 0;
#X connect 2 0 8 0;
#X connect 5 0 0 0;
#X connect 6 0 2 0;
#X connect 7 0 1 0;
#X connect 8 0 3 0;
#X connect 9 0 0 1;
#X connect 10 0 2 1;
#X restore 22 359 pd DRAW-SMALL-VIDEOS;
#X text 321 458 change angle of kinect;
#X obj 20 311 openni-interface;
#X obj 332 216 r init;
#X obj 109 221 tgl 15 0 empty empty empty 17 7 0 10 -262144 -1 -1 0
1;
#X obj 359 69 tgl 15 0 nite-userdata nite-userdata nite-userdata 17
7 0 10 -262144 -1 -1 1 1;
#X obj 332 241 delay 2000;
#N canvas 599 288 330 256 DRAW-BIG-DEPTHMAP 0;
#X obj 46 154 rectangle 4 3;
#X obj 46 120 translateXYZ 0 0 0;
#X obj 46 59 gemhead;
#X obj 46 90 pix_texture;
#X text 50 40 DRAW IT;
#X obj 109 64 r /kinect/tex-id/depth;
#X connect 1 0 0 0;
#X connect 2 0 3 0;
#X connect 3 0 1 0;
#X connect 5 0 3 1;
#X restore 22 390 pd DRAW-BIG-DEPTHMAP;
#X text 6 4 HAND tracking with OpenNI/NITE;
#X text 108 67 AllowMultipleHands=1;
#X text 108 83 TrackAdditionalHands=1;
#X text 227 367 * depth_output doesn't matter;
#X text 225 382 * for displaying i use non real world coordinates;
#X msg 332 294 \; /openni depth_output 0 \; /openni real_world_coords
0 \; /openni hand 1 \; nite-userdata 1 \;;
#X text 225 396 * hand tracking can be turned on by;
#X text 235 409 pix_openni creation argument or message;
#X text 10 37 to track multiple Hands edit following File: /usr/etc/primesense/Hands_*/Nite.ini
and uncomment:;
#X text 16 145 you have to make a waving gesture to start hand tracking!!
;
#N canvas 664 42 578 322 DRAW-HANDS-AND-DATA 0;
#X obj 54 32 r /openni/msg;
#X obj 388 132 s /openni;
#X msg 388 103 userinfo;
#X obj 388 73 metro 200;
#X obj 388 48 tgl 15 0 empty empty empty 17 7 0 10 -262144 -1 -1 1
1;
#X obj 388 16 r nite-userdata;
#X obj 54 75 route hand;
#N canvas 410 392 450 300 show-text 0;
#X obj 47 30 inlet;
#X obj 139 88 gemhead;
#X obj 139 212 text3d;
#X obj 182 165 loadbang;
#X obj 47 52 list prepend text;
#X obj 47 74 list trim;
#X msg 222 186 justify right base;
#X obj 139 110 translateXYZ 3 3.5 0.1;
#X obj 139 140 color 1 1 0 1;
#X msg 182 187 4;
#X obj 166 59 r nite-userdata;
#X connect 0 0 4 0;
#X connect 1 0 7 0;
#X connect 3 0 9 0;
#X connect 3 0 6 0;
#X connect 4 0 5 0;
#X connect 5 0 2 0;
#X connect 6 0 2 1;
#X connect 7 0 8 0;
#X connect 8 0 2 0;
#X connect 9 0 2 1;
#X connect 10 0 1 0;
#X restore 243 111 pd show-text;
#N canvas 756 288 496 449 draw-hand-1 0;
#X obj 87 27 inlet;
#X obj 48 411 text3d;
#X obj 91 364 loadbang;
#X msg 121 385 justify right base;
#X msg 91 386 4;
#X obj 48 269 translateXYZ 0 0 0.1;
#X obj 48 339 color 0 1 0 1;
#X obj 139 138 + -0.5;
#X obj 87 138 + -0.5;
#X obj 48 294 t a a;
#X obj 216 325 color 0 0 0 0.5;
#X obj 48 249 alpha;
#X obj 48 187 gemhead;
#X obj 216 349 rectangle 1.5 0.21;
#X obj -30 142 r nite-userdata;
#X text 131 27 handid \, x \, y \, z;
#X floatatom 153 200 5 0 0 0 - - -;
#X floatatom 104 182 5 0 0 0 - - -;
#X obj 87 160 * -5;
#X obj 139 160 * -5;
#X obj 266 238 list trim;
#X obj 266 205 list prepend text hand;
#X obj 274 27 inlet;
#X obj 87 68 route 1;
#X obj 87 105 unpack 0 0 0;
#X text 317 31 change hand-id;
#X obj 266 171 list prepend;
#X connect 0 0 23 0;
#X connect 2 0 4 0;
#X connect 2 0 3 0;
#X connect 3 0 1 1;
#X connect 4 0 1 1;
#X connect 5 0 9 0;
#X connect 6 0 1 0;
#X connect 7 0 19 0;
#X connect 8 0 18 0;
#X connect 9 0 6 0;
#X connect 9 1 10 0;
#X connect 10 0 13 0;
#X connect 11 0 5 0;
#X connect 12 0 11 0;
#X connect 14 0 12 0;
#X connect 18 0 5 1;
#X connect 18 0 17 0;
#X connect 19 0 5 2;
#X connect 19 0 16 0;
#X connect 20 0 1 0;
#X connect 21 0 20 0;
#X connect 22 0 23 1;
#X connect 22 0 26 1;
#X connect 23 0 24 0;
#X connect 24 0 8 0;
#X connect 24 1 7 0;
#X connect 24 2 26 0;
#X connect 26 0 21 0;
#X restore 54 247 pd draw-hand-1;
#N canvas 0 22 440 383 switch 1;
#X obj 43 104 route new_hand;
#X obj 43 132 t f b;
#X obj 91 154 tgl 15 0 empty empty empty 17 7 0 10 -262144 -1 -1 0
1;
#X obj 43 21 inlet;
#X obj 46 282 outlet;
#X obj 124 280 outlet;
#X obj 46 251 spigot 1;
#X obj 91 174 t f f;
#X obj 118 197 - 1;
#X obj 118 224 abs;
#X obj 124 258 spigot 0;
#X connect 0 0 1 0;
#X connect 1 0 6 0;
#X connect 1 0 10 0;
#X connect 1 1 2 0;
#X connect 2 0 7 0;
#X connect 3 0 0 0;
#X connect 6 0 4 0;
#X connect 7 0 6 1;
#X connect 7 1 8 0;
#X connect 8 0 9 0;
#X connect 9 0 10 1;
#X connect 10 0 5 0;
#X restore 111 132 pd switch;
#N canvas 756 288 496 449 draw-hand-2 0;
#X obj 87 27 inlet;
#X obj 48 411 text3d;
#X obj 91 364 loadbang;
#X msg 121 385 justify right base;
#X msg 91 386 4;
#X obj 48 269 translateXYZ 0 0 0.1;
#X obj 48 339 color 0 1 0 1;
#X obj 139 138 + -0.5;
#X obj 87 138 + -0.5;
#X obj 48 294 t a a;
#X obj 216 325 color 0 0 0 0.5;
#X obj 48 249 alpha;
#X obj 48 187 gemhead;
#X obj 216 349 rectangle 1.5 0.21;
#X obj -30 142 r nite-userdata;
#X text 131 27 handid \, x \, y \, z;
#X floatatom 153 200 5 0 0 0 - - -;
#X floatatom 104 182 5 0 0 0 - - -;
#X obj 87 160 * -5;
#X obj 139 160 * -5;
#X obj 266 238 list trim;
#X obj 266 205 list prepend text hand;
#X obj 274 27 inlet;
#X obj 87 68 route 1;
#X obj 87 105 unpack 0 0 0;
#X text 317 31 change hand-id;
#X obj 266 171 list prepend;
#X connect 0 0 23 0;
#X connect 2 0 4 0;
#X connect 2 0 3 0;
#X connect 3 0 1 1;
#X connect 4 0 1 1;
#X connect 5 0 9 0;
#X connect 6 0 1 0;
#X connect 7 0 19 0;
#X connect 8 0 18 0;
#X connect 9 0 6 0;
#X connect 9 1 10 0;
#X connect 10 0 13 0;
#X connect 11 0 5 0;
#X connect 12 0 11 0;
#X connect 14 0 12 0;
#X connect 18 0 5 1;
#X connect 18 0 17 0;
#X connect 19 0 5 2;
#X connect 19 0 16 0;
#X connect 20 0 1 0;
#X connect 21 0 20 0;
#X connect 22 0 23 1;
#X connect 22 0 26 1;
#X connect 23 0 24 0;
#X connect 24 0 8 0;
#X connect 24 1 7 0;
#X connect 24 2 26 0;
#X connect 26 0 21 0;
#X restore 150 248 pd draw-hand-2;
#X connect 0 0 6 0;
#X connect 2 0 1 0;
#X connect 3 0 2 0;
#X connect 4 0 3 0;
#X connect 5 0 4 0;
#X connect 6 0 8 0;
#X connect 6 0 10 0;
#X connect 6 1 7 0;
#X connect 6 1 9 0;
#X connect 9 0 8 1;
#X connect 9 1 10 1;
#X restore 21 433 pd DRAW-HANDS-AND-DATA;
#X connect 1 0 0 0;
#X connect 4 0 5 0;
#X connect 5 0 3 0;
#X connect 7 0 24 0;
#X connect 9 0 0 0;
#X connect 14 0 17 0;
#X connect 15 0 0 0;
#X connect 17 0 7 0;
